<svg width="64" height="64" viewBox="0 0 64 64" fill="none" xmlns="http://www.w3.org/2000/svg">
    <path fill-rule="evenodd" clip-rule="evenodd"
          d="M57.8 44.4747C57.2412 45.0251 56.4884 45.3337 55.704 45.3337C54.9196 45.3337 54.1668 45.0251 53.608 44.4747L32 23.0827L10.392 44.4747C9.83323 45.0251 9.08036 45.3337 8.296 45.3337C7.51164 45.3337 6.75877 45.0251 6.2 44.4747C5.04533 43.328 5.04533 41.472 6.2 40.3253L29.9067 16.8587C30.4652 16.3098 31.2169 16.0023 32 16.0023C32.7831 16.0023 33.5348 16.3098 34.0933 16.8587L57.8 40.3253C58.0751 40.5963 58.2936 40.9193 58.4427 41.2754C58.5918 41.6316 58.6686 42.0139 58.6686 42.4C58.6686 42.7861 58.5918 43.1684 58.4427 43.5246C58.2936 43.8808 58.0751 44.2037 57.8 44.4747Z"
          fill="black"/>
</svg>
