<svg width="65" height="65" viewBox="0 0 65 65" fill="none" xmlns="http://www.w3.org/2000/svg">
    <path fill-rule="evenodd" clip-rule="evenodd"
          d="M6.51055 20.3554C7.06931 19.805 7.82219 19.4964 8.60655 19.4964C9.3909 19.4964 10.1438 19.805 10.7025 20.3554L32.3105 41.7474L53.9185 20.3554C54.4773 19.805 55.2302 19.4964 56.0145 19.4964C56.7989 19.4964 57.5518 19.805 58.1105 20.3554C59.2652 21.5021 59.2652 23.3581 58.1105 24.5047L34.4039 47.9714C33.8453 48.5203 33.0936 48.8278 32.3105 48.8278C31.5275 48.8278 30.7757 48.5203 30.2172 47.9714L6.51055 24.5047C6.23545 24.2338 6.01698 23.9108 5.86786 23.5547C5.71875 23.1985 5.64195 22.8162 5.64195 22.4301C5.64195 22.0439 5.71875 21.6617 5.86786 21.3055C6.01698 20.9493 6.23545 20.6264 6.51055 20.3554Z"
          fill="black"/>
</svg>
