<svg width="140" height="40" viewBox="0 0 140 40" fill="none" xmlns="http://www.w3.org/2000/svg">
<rect width="140" height="40" rx="2" fill="white"/>
<path d="M45.1078 24.4808C45.3934 24.4808 45.6323 24.5824 45.8245 24.7856C46.0167 24.9888 46.1128 25.2239 46.1128 25.4909C46.1128 25.7812 46.0167 26.0192 45.8245 26.205C45.6323 26.3908 45.3934 26.4836 45.1078 26.4836H39.5889C39.3034 26.4836 39.0645 26.382 38.8723 26.1789C38.6801 25.9757 38.584 25.7231 38.584 25.4213V15.3549C38.584 15.053 38.6801 14.8005 38.8723 14.5973C39.0645 14.3941 39.3034 14.2925 39.5889 14.2925H45.1078C45.3934 14.2925 45.6323 14.3883 45.8245 14.5798C46.0167 14.7714 46.1128 15.0181 46.1128 15.32C46.1128 15.6103 46.0194 15.8454 45.8327 16.0254C45.646 16.2053 45.4044 16.2953 45.1078 16.2953H40.6433V19.256H44.3665C44.652 19.256 44.8909 19.3518 45.0831 19.5434C45.2753 19.735 45.3714 19.9817 45.3714 20.2836C45.3714 20.5738 45.2781 20.8089 45.0914 20.9889C44.9046 21.1689 44.663 21.2589 44.3665 21.2589H40.6433V24.4808H45.1078ZM54.9155 16.984C55.2 16.984 55.4352 17.0826 55.6212 17.2799C55.8072 17.4771 55.9002 17.7323 55.9002 18.0455V25.4064C55.9002 25.7081 55.8072 25.9604 55.6212 26.1634C55.4352 26.3664 55.2 26.4679 54.9155 26.4679C54.6311 26.4679 54.3986 26.3693 54.2181 26.1721C54.0376 25.9749 53.9418 25.7255 53.9309 25.4238C53.6574 25.7603 53.2881 26.0474 52.8232 26.2852C52.3582 26.5231 51.8686 26.642 51.3544 26.642C50.5995 26.642 49.9157 26.436 49.3031 26.0242C48.6904 25.6124 48.2063 25.041 47.8507 24.3101C47.4951 23.5793 47.3174 22.7498 47.3174 21.8217C47.3174 20.8936 47.4924 20.0612 47.8425 19.3246C48.1926 18.5879 48.6712 18.0136 49.2784 17.6018C49.8856 17.19 50.5557 16.984 51.2888 16.984C51.8139 16.984 52.3062 17.0855 52.7657 17.2886C53.2252 17.4916 53.6136 17.7497 53.9309 18.0629V18.0455C53.9309 17.7439 54.0239 17.4916 54.2099 17.2886C54.3959 17.0855 54.6311 16.984 54.9155 16.984ZM51.6758 24.742C52.3885 24.742 52.9695 24.4652 53.419 23.9114C53.8685 23.3577 54.0933 22.6611 54.0933 21.8217C54.0933 20.9824 53.8685 20.2829 53.419 19.7233C52.9695 19.1637 52.3885 18.884 51.6758 18.884C50.9742 18.884 50.3986 19.1637 49.9491 19.7233C49.4996 20.2829 49.2748 20.9824 49.2748 21.8217C49.2748 22.6611 49.4969 23.3577 49.9409 23.9114C50.3849 24.4652 50.9632 24.742 51.6758 24.742ZM62.566 16.984C62.8939 16.984 63.1699 17.0828 63.394 17.2804C63.6181 17.4779 63.7301 17.7103 63.7301 17.9776C63.7301 18.3378 63.6427 18.608 63.4678 18.7881C63.2929 18.9682 63.0852 19.0583 62.8448 19.0583C62.6808 19.0583 62.495 19.0176 62.2873 18.9362C62.2545 18.9246 62.1808 18.9014 62.066 18.8665C61.9512 18.8317 61.8283 18.8142 61.6971 18.8142C61.4129 18.8142 61.1397 18.9072 60.8774 19.0931C60.615 19.279 60.3992 19.5608 60.2298 19.9385C60.0603 20.3162 59.9756 20.7664 59.9756 21.2894V25.4204C59.9756 25.7225 59.8827 25.9752 59.6969 26.1786C59.5111 26.382 59.2761 26.4836 58.9919 26.4836C58.7077 26.4836 58.4728 26.382 58.2869 26.1786C58.1011 25.9752 58.0082 25.7225 58.0082 25.4204V18.2216C58.0082 17.9195 58.1011 17.6667 58.2869 17.4634C58.4728 17.26 58.7077 17.1583 58.9919 17.1583C59.2761 17.1583 59.5111 17.26 59.6969 17.4634C59.8827 17.6667 59.9756 17.9195 59.9756 18.2216V18.4482C60.227 17.9718 60.5877 17.6086 61.0577 17.3588C61.5277 17.109 62.0305 16.984 62.566 16.984ZM67.3439 25.4265C67.3439 25.7269 67.2488 25.9782 67.0584 26.1804C66.8681 26.3825 66.6316 26.4836 66.3489 26.4836C66.077 26.4836 65.8486 26.3825 65.6637 26.1804C65.4789 25.9782 65.3864 25.7269 65.3864 25.4265V14.7163C65.3864 14.4159 65.4816 14.1646 65.6719 13.9625C65.8622 13.7603 66.0987 13.6592 66.3815 13.6592C66.6534 13.6592 66.8817 13.7603 67.0666 13.9625C67.2515 14.1646 67.3439 14.4159 67.3439 14.7163V25.4265ZM76.7452 17.1424C77.0307 17.1424 77.2668 17.2441 77.4536 17.4477C77.6403 17.6513 77.7336 17.9043 77.7336 18.2067V25.6222C77.7336 27.1344 77.3492 28.2365 76.5804 28.9287C75.8116 29.6208 74.7847 29.9668 73.4997 29.9668C73.1263 29.9668 72.7446 29.9348 72.3547 29.8709C71.9648 29.8069 71.6491 29.7225 71.4075 29.6179C70.8693 29.3736 70.6002 29.0363 70.6002 28.6059C70.6002 28.5244 70.6167 28.4314 70.6497 28.3267C70.7155 28.0708 70.8281 27.8759 70.9874 27.7422C71.1466 27.6084 71.3196 27.5415 71.5063 27.5415C71.6161 27.5415 71.7205 27.559 71.8193 27.5939C71.8962 27.6288 72.0307 27.6869 72.2229 27.7683C72.4151 27.8498 72.6183 27.9167 72.8325 27.969C73.0467 28.0213 73.2691 28.0475 73.4997 28.0475C74.2795 28.0475 74.8534 27.8701 75.2213 27.5153C75.5892 27.1606 75.7732 26.5528 75.7732 25.692V25.5175C75.2021 26.2736 74.3125 26.6517 73.1043 26.6517C72.5332 26.6517 72.028 26.5092 71.5887 26.2242C71.1494 25.9392 70.8089 25.5437 70.5673 25.0377C70.3257 24.5317 70.2048 23.953 70.2048 23.3016V18.2067C70.2048 17.9043 70.2982 17.6513 70.4849 17.4477C70.6716 17.2441 70.9077 17.1424 71.1933 17.1424C71.4789 17.1424 71.715 17.2441 71.9017 17.4477C72.0884 17.6513 72.1818 17.9043 72.1818 18.2067V22.6735C72.1818 23.4063 72.3328 23.9326 72.6348 24.2525C72.9368 24.5724 73.3789 24.7323 73.961 24.7323C74.5321 24.7323 74.9742 24.555 75.2872 24.2002C75.6002 23.8454 75.7567 23.3365 75.7567 22.6735V18.2067C75.7567 17.9043 75.85 17.6513 76.0368 17.4477C76.2235 17.2441 76.4596 17.1424 76.7452 17.1424ZM83.6305 26.642C82.8476 26.642 82.1518 26.5377 81.5429 26.3293C80.934 26.1208 80.3631 25.7676 79.8303 25.2696C79.5367 24.9916 79.3899 24.6847 79.3899 24.3489C79.3899 24.0825 79.4824 23.848 79.6672 23.6453C79.8521 23.4426 80.075 23.3413 80.3359 23.3413C80.5425 23.3413 80.7274 23.4108 80.8905 23.5498C81.3254 23.9319 81.7494 24.2099 82.1626 24.3836C82.5758 24.5573 83.0651 24.6442 83.6305 24.6442C84.2394 24.6442 84.7641 24.4994 85.2044 24.2099C85.6448 23.9204 85.865 23.5613 85.865 23.1328C85.865 22.6117 85.6475 22.2034 85.2126 21.9081C84.7777 21.6128 84.0872 21.3898 83.1412 21.2393C80.76 20.8687 79.5694 19.6874 79.5694 17.6954C79.5694 16.9658 79.7488 16.3317 80.1076 15.7932C80.4664 15.2546 80.9557 14.8435 81.5755 14.5598C82.1953 14.276 82.8857 14.1342 83.6468 14.1342C84.3319 14.1342 84.9761 14.2442 85.5796 14.4642C86.183 14.6843 86.6859 14.9738 87.0882 15.3328C87.4036 15.5992 87.5612 15.9061 87.5612 16.2535C87.5612 16.5199 87.4688 16.7544 87.2839 16.9571C87.0991 17.1598 86.8816 17.2611 86.6315 17.2611C86.4684 17.2611 86.3217 17.209 86.1912 17.1048C85.9085 16.8616 85.5143 16.6386 85.0087 16.4359C84.5031 16.2333 84.0491 16.1319 83.6468 16.1319C82.9618 16.1319 82.4318 16.268 82.0566 16.5402C81.6815 16.8123 81.4939 17.1685 81.4939 17.6085C81.4939 18.1065 81.6869 18.4829 82.0729 18.7377C82.4589 18.9925 83.0651 19.201 83.8915 19.3631C84.8266 19.5368 85.5741 19.7598 86.1341 20.0319C86.6941 20.3041 87.1154 20.6747 87.3981 21.1437C87.6808 21.6128 87.8222 22.2353 87.8222 23.0112C87.8222 23.7409 87.6292 24.3807 87.2432 24.9308C86.8572 25.4809 86.3434 25.9037 85.7019 26.199C85.0604 26.4943 84.3699 26.642 83.6305 26.642ZM96.7755 16.984C97.06 16.984 97.2952 17.0826 97.4812 17.2799C97.6672 17.4771 97.7602 17.7323 97.7602 18.0455V25.4064C97.7602 25.7081 97.6672 25.9604 97.4812 26.1634C97.2952 26.3664 97.06 26.4679 96.7755 26.4679C96.4911 26.4679 96.2586 26.3693 96.0781 26.1721C95.8975 25.9749 95.8018 25.7255 95.7909 25.4238C95.5174 25.7603 95.1481 26.0474 94.6832 26.2852C94.2182 26.5231 93.7286 26.642 93.2144 26.642C92.4595 26.642 91.7757 26.436 91.163 26.0242C90.5504 25.6124 90.0663 25.041 89.7107 24.3101C89.3551 23.5793 89.1774 22.7498 89.1774 21.8217C89.1774 20.8936 89.3524 20.0612 89.7025 19.3246C90.0526 18.5879 90.5312 18.0136 91.1384 17.6018C91.7456 17.19 92.4157 16.984 93.1488 16.984C93.6739 16.984 94.1662 17.0855 94.6257 17.2886C95.0852 17.4916 95.4736 17.7497 95.7909 18.0629V18.0455C95.7909 17.7439 95.8839 17.4916 96.0699 17.2886C96.2558 17.0855 96.4911 16.984 96.7755 16.984ZM93.3852 24.742C94.0979 24.742 94.6789 24.4652 95.1284 23.9114C95.5779 23.3577 95.8027 22.6611 95.8027 21.8217C95.8027 20.9824 95.5779 20.2829 95.1284 19.7233C94.6789 19.1637 94.0979 18.884 93.3852 18.884C92.6836 18.884 92.108 19.1637 91.6585 19.7233C91.209 20.2829 90.9843 20.9824 90.9843 21.8217C90.9843 22.6611 91.2063 23.3577 91.6503 23.9114C92.0943 24.4652 92.6726 24.742 93.3852 24.742ZM102.127 25.4265C102.127 25.7269 102.032 25.9782 101.841 26.1804C101.651 26.3825 101.415 26.4836 101.132 26.4836C100.86 26.4836 100.632 26.3825 100.447 26.1804C100.262 25.9782 100.169 25.7269 100.169 25.4265V14.7163C100.169 14.4159 100.265 14.1646 100.455 13.9625C100.645 13.7603 100.882 13.6592 101.164 13.6592C101.436 13.6592 101.665 13.7603 101.85 13.9625C102.034 14.1646 102.127 14.4159 102.127 14.7163V25.4265ZM111.532 16.984C111.816 16.984 112.052 17.0826 112.238 17.2799C112.424 17.4771 112.517 17.7323 112.517 18.0455V25.4064C112.517 25.7081 112.424 25.9604 112.238 26.1634C112.052 26.3664 111.816 26.4679 111.532 26.4679C111.247 26.4679 111.015 26.3693 110.834 26.1721C110.654 25.9749 110.558 25.7255 110.547 25.4238C110.274 25.7603 109.905 26.0474 109.44 26.2852C108.975 26.5231 108.485 26.642 107.971 26.642C107.216 26.642 106.532 26.436 105.919 26.0242C105.307 25.6124 104.823 25.041 104.467 24.3101C104.112 23.5793 103.934 22.7498 103.934 21.8217C103.934 20.8936 104.109 20.0612 104.459 19.3246C104.809 18.5879 105.288 18.0136 105.895 17.6018C106.502 17.19 107.172 16.984 107.905 16.984C108.43 16.984 108.923 17.0855 109.382 17.2886C109.842 17.4916 110.23 17.7497 110.547 18.0629V18.0455C110.547 17.7439 110.64 17.4916 110.826 17.2886C111.012 17.0855 111.247 16.984 111.532 16.984ZM108.292 24.742C109.005 24.742 109.586 24.4652 110.035 23.9114C110.485 23.3577 110.71 22.6611 110.71 21.8217C110.71 20.9824 110.485 20.2829 110.035 19.7233C109.586 19.1637 109.005 18.884 108.292 18.884C107.591 18.884 107.015 19.1637 106.565 19.7233C106.116 20.2829 105.891 20.9824 105.891 21.8217C105.891 22.6611 106.113 23.3577 106.557 23.9114C107.001 24.4652 107.58 24.742 108.292 24.742ZM119.333 16.984C119.661 16.984 119.937 17.0828 120.161 17.2804C120.385 17.4779 120.497 17.7103 120.497 17.9776C120.497 18.3378 120.41 18.608 120.235 18.7881C120.06 18.9682 119.852 19.0583 119.612 19.0583C119.448 19.0583 119.262 19.0176 119.054 18.9362C119.022 18.9246 118.948 18.9014 118.833 18.8665C118.718 18.8317 118.595 18.8142 118.464 18.8142C118.18 18.8142 117.907 18.9072 117.644 19.0931C117.382 19.279 117.166 19.5608 116.997 19.9385C116.827 20.3162 116.743 20.7664 116.743 21.2894V25.4204C116.743 25.7225 116.65 25.9752 116.464 26.1786C116.278 26.382 116.043 26.4836 115.759 26.4836C115.475 26.4836 115.24 26.382 115.054 26.1786C114.868 25.9752 114.775 25.7225 114.775 25.4204V18.2216C114.775 17.9195 114.868 17.6667 115.054 17.4634C115.24 17.26 115.475 17.1583 115.759 17.1583C116.043 17.1583 116.278 17.26 116.464 17.4634C116.65 17.6667 116.743 17.9195 116.743 18.2216V18.4482C116.994 17.9718 117.355 17.6086 117.825 17.3588C118.295 17.109 118.797 16.984 119.333 16.984ZM128.393 17.1424C128.678 17.1424 128.914 17.2441 129.101 17.4477C129.288 17.6513 129.381 17.9043 129.381 18.2067V25.6222C129.381 27.1344 128.997 28.2365 128.228 28.9287C127.459 29.6208 126.432 29.9668 125.147 29.9668C124.774 29.9668 124.392 29.9348 124.002 29.8709C123.612 29.8069 123.297 29.7225 123.055 29.6179C122.517 29.3736 122.248 29.0363 122.248 28.6059C122.248 28.5244 122.264 28.4314 122.297 28.3267C122.363 28.0708 122.476 27.8759 122.635 27.7422C122.794 27.6084 122.967 27.5415 123.154 27.5415C123.264 27.5415 123.368 27.559 123.467 27.5939C123.544 27.6288 123.678 27.6869 123.87 27.7683C124.063 27.8498 124.266 27.9167 124.48 27.969C124.694 28.0213 124.916 28.0475 125.147 28.0475C125.927 28.0475 126.501 27.8701 126.869 27.5153C127.237 27.1606 127.421 26.5528 127.421 25.692V25.5175C126.849 26.2736 125.96 26.6517 124.752 26.6517C124.181 26.6517 123.675 26.5092 123.236 26.2242C122.797 25.9392 122.456 25.5437 122.215 25.0377C121.973 24.5317 121.852 23.953 121.852 23.3016V18.2067C121.852 17.9043 121.946 17.6513 122.132 17.4477C122.319 17.2441 122.555 17.1424 122.841 17.1424C123.126 17.1424 123.362 17.2441 123.549 17.4477C123.736 17.6513 123.829 17.9043 123.829 18.2067V22.6735C123.829 23.4063 123.98 23.9326 124.282 24.2525C124.584 24.5724 125.026 24.7323 125.608 24.7323C126.18 24.7323 126.622 24.555 126.935 24.2002C127.248 23.8454 127.404 23.3365 127.404 22.6735V18.2067C127.404 17.9043 127.497 17.6513 127.684 17.4477C127.871 17.2441 128.107 17.1424 128.393 17.1424Z" fill="#1FDFDD"/>
<path d="M14.2424 9H29.0197C30.8106 9 32.2626 10.5507 32.2626 12.4642V28.25C32.2626 30.1632 30.8106 31.7142 29.0197 31.7142H14.2424C12.4517 31.7142 11 30.1632 11 28.25V12.4642C11 10.5507 12.4517 9 14.2424 9ZM19.0938 20.9776C19.4228 20.9776 19.6895 20.6999 19.6895 20.357C19.6895 20.0143 19.4228 19.7366 19.0938 19.7366H14.4305C14.1018 19.7366 13.835 20.0143 13.835 20.357C13.835 20.6999 14.1018 20.9776 14.4305 20.9776H19.0938ZM20.7436 24.1889H14.4311C14.1018 24.1889 13.835 24.4669 13.835 24.8099V24.8105C13.835 25.1536 14.1018 25.4316 14.4311 25.4316H20.7436C21.0726 25.4316 21.3394 25.1536 21.3394 24.8105V24.8099C21.3394 24.4669 21.0726 24.1889 20.7436 24.1889ZM20.7436 15.2827H14.4311C14.1018 15.2827 13.835 15.5607 13.835 15.9037V15.9043C13.835 16.2472 14.1018 16.525 14.4311 16.525H20.7436C21.0726 16.525 21.3394 16.2472 21.3394 15.9043V15.9037C21.3394 15.5607 21.0726 15.2827 20.7436 15.2827ZM29.1058 21.1627C28.7972 20.6474 28.3146 20.2852 27.7646 20.0064C27.2281 19.7419 26.5982 19.5609 25.9142 19.4214H25.8875C25.1634 19.2823 24.5596 19.0593 24.211 18.8089C24.0368 18.6834 23.916 18.558 23.8489 18.4464C23.782 18.3352 23.755 18.2236 23.755 18.0566C23.755 17.7641 23.9027 17.4574 24.2647 17.1789C24.6268 16.9006 25.1634 16.7054 25.7668 16.7054C26.5845 16.7054 27.2417 17.1234 27.9258 17.5968C28.2474 17.8199 28.6769 17.7223 28.8779 17.388C29.0924 17.0676 28.9987 16.6218 28.6901 16.399C28.006 15.9395 27.0539 15.2848 25.7668 15.2848C24.895 15.2848 24.0769 15.5491 23.4467 16.023C22.8298 16.4963 22.3738 17.2207 22.3738 18.0566C22.3738 18.4743 22.4813 18.8644 22.6824 19.1987C22.9772 19.6861 23.4196 20.0343 23.9295 20.2852C24.4389 20.5356 25.029 20.7029 25.6595 20.8281H25.6862C26.4772 20.9815 27.1344 21.2185 27.5232 21.4828C27.7245 21.6222 27.8453 21.7615 27.9258 21.9008C28.006 22.0402 28.0461 22.1657 28.0461 22.3464C28.0461 22.6949 27.8719 23.043 27.4698 23.3494C27.0672 23.656 26.4641 23.8647 25.7935 23.8647C24.8411 23.8786 23.8222 23.2934 23.2321 22.7923C22.937 22.5415 22.4946 22.5832 22.2532 22.8898C22.0251 23.1962 22.0654 23.656 22.3605 23.9065C23.1248 24.5333 24.345 25.2853 25.7935 25.2992C26.7456 25.2992 27.6172 25.0067 28.2744 24.5054C28.9448 24.0041 29.4276 23.2379 29.4276 22.3464C29.4276 21.9147 29.3068 21.4966 29.1058 21.1627Z" fill="url(#paint0_linear_1740_3230)"/>
<defs>
<linearGradient id="paint0_linear_1740_3230" x1="-268.028" y1="-243.126" x2="2292.83" y2="2111.2" gradientUnits="userSpaceOnUse">
<stop stop-color="#29C3CF"/>
<stop offset="1" stop-color="#16F5E7"/>
</linearGradient>
</defs>
</svg>
